<svg class="svg-icon" style="width: 1em;height: 1em;vertical-align: middle;fill: currentColor;overflow: hidden;" viewBox="0 0 1024 1024" version="1.1" xmlns="http://www.w3.org/2000/svg"><path d="M948.01 192H671.14V86c0-12.1-9.9-22-22-22H371.52c-11 0-20 9-20 20v108H76c-6.6 0-12 5.4-12 12v40c0 6.6 5.4 12 12 12h116v684.22c0 11 9 20 20 20h599.24c11 0 20-9 20-20V256h116.77c6.6 0 12-5.4 12-12v-40c0-6.6-5.4-12-12-12z m-532.49-64h191.62v64H415.52v-64z m351.72 768.22H256V256h511.24v640.22z"  /><path d="M396 768.01h40c6.6 0 12-5.4 12-12V394c0-5.5-4.5-10-10-10h-42c-6.6 0-12 5.4-12 12v360.01c0 6.6 5.4 12 12 12zM588.01 768.01h40c6.6 0 12-5.4 12-12V394c0-5.5-4.5-10-10-10h-42c-6.6 0-12 5.4-12 12v360.01c0 6.6 5.4 12 12 12z"  /></svg>